<?xml version="1.0" encoding="UTF-8" standalone="no"?>
<svg xmlns="http://www.w3.org/2000/svg" viewBox="0 0 48 48">
  <path fill="#252f3e" d="M13.527,21.529c0,0.597,0.064,1.08,0.176,1.445c0.128,0.365,0.288,0.763,0.512,1.221	c0.080,0.149,0.112,0.293,0.112,0.432c0,0.187-0.112,0.373-0.352,0.56l-1.168,0.784c-0.168,0.112-0.331,0.166-0.475,0.166	c-0.186,0-0.37-0.09-0.563-0.261c-0.256-0.283-0.475-0.581-0.66-0.896c-0.176-0.325-0.352-0.683-0.528-1.098	c-1.329,1.571-2.996,2.357-5.003,2.357c-1.426,0-2.562-0.41-3.392-1.229c-0.83-0.819-1.253-1.915-1.253-3.285	c0-1.459,0.515-2.645,1.553-3.547c1.038-0.902,2.419-1.353,4.159-1.353c0.576,0,1.169,0.048,1.793,0.134	c0.624,0.086,1.273,0.214,1.937,0.373v-1.229c0-1.277-0.266-2.175-0.785-2.683c-0.528-0.507-1.425-0.766-2.707-0.766	c-0.576,0-1.177,0.074-1.785,0.224c-0.608,0.149-1.201,0.347-1.777,0.582c-0.267,0.112-0.459,0.187-0.579,0.213	c-0.12,0.027-0.206,0.041-0.274,0.041c-0.24,0-0.36-0.176-0.36-0.539V12.33c0-0.283,0.037-0.485,0.12-0.61	c0.08-0.125,0.24-0.254,0.467-0.378c0.584-0.299,1.283-0.55,2.099-0.746C7.552,10.399,8.41,10.3,9.305,10.3	c2.232,0,3.868,0.507,4.916,1.521c1.038,1.014,1.561,2.555,1.561,4.624v5.084H13.527z M7.045,19.648	c0.552,0,1.129-0.101,1.729-0.299c0.6-0.198,1.137-0.563,1.601-1.080c0.272-0.325,0.476-0.695,0.592-1.106	c0.12-0.411,0.184-0.906,0.184-1.496v-0.715c-0.488-0.117-1.009-0.219-1.561-0.293c-0.552-0.074-1.089-0.115-1.617-0.115	c-1.153,0-1.993,0.23-2.539,0.69c-0.544,0.459-0.82,1.106-0.82,1.955c0,0.806,0.208,1.41,0.624,1.827	C5.653,19.44,6.256,19.648,7.045,19.648z M21.192,21.989c-0.308,0-0.517-0.053-0.648-0.16c-0.13-0.107-0.244-0.352-0.348-0.725	l-3.896-12.842c-0.104-0.373-0.156-0.614-0.156-0.725c0-0.299,0.149-0.448,0.444-0.448h1.817c0.348,0,0.587,0.053,0.709,0.16	c0.128,0.107,0.228,0.352,0.324,0.725l2.788,10.997l2.584-10.997c0.08-0.373,0.176-0.619,0.308-0.725	c0.128-0.107,0.379-0.16,0.74-0.16h1.481c0.352,0,0.592,0.053,0.724,0.16c0.128,0.107,0.24,0.352,0.308,0.725l2.616,11.133	l2.868-11.133c0.096-0.373,0.2-0.619,0.32-0.725c0.128-0.107,0.368-0.16,0.716-0.16h1.729c0.299,0,0.444,0.149,0.444,0.448	c0,0.085-0.016,0.181-0.04,0.288c-0.024,0.107-0.064,0.25-0.124,0.437l-3.992,12.842c-0.104,0.373-0.216,0.619-0.348,0.725	c-0.128,0.107-0.339,0.16-0.648,0.16h-1.593c-0.352,0-0.592-0.053-0.716-0.16c-0.128-0.107-0.24-0.352-0.308-0.741l-2.576-10.693	l-2.545,10.677c-0.08,0.389-0.184,0.635-0.308,0.741c-0.128,0.107-0.379,0.16-0.732,0.16H21.192z M40.755,22.269	c-0.97,0-1.937-0.112-2.891-0.331c-0.947-0.219-1.689-0.459-2.208-0.715c-0.308-0.149-0.523-0.309-0.627-0.475	c-0.104-0.166-0.156-0.347-0.156-0.533v-0.981c0-0.363,0.139-0.539,0.403-0.539c0.104,0,0.208,0.016,0.312,0.048	s0.24,0.085,0.403,0.149c0.83,0.363,1.729,0.651,2.683,0.853c0.963,0.203,1.905,0.309,2.843,0.309c1.506,0,2.675-0.267,3.504-0.795	c0.83-0.523,1.253-1.277,1.253-2.254c0-0.661-0.208-1.207-0.627-1.645c-0.416-0.437-1.201-0.827-2.339-1.165l-3.349-1.053	c-1.689-0.523-2.931-1.293-3.716-2.301c-0.779-1.006-1.173-2.126-1.173-3.331c0-0.955,0.204-1.797,0.611-2.518	c0.403-0.725,0.947-1.341,1.617-1.835c0.67-0.491,1.441-0.87,2.323-1.117c0.883-0.251,1.809-0.379,2.788-0.379	c0.488,0,0.987,0.032,1.481,0.085c0.501,0.053,0.971,0.128,1.425,0.213c0.437,0.085,0.851,0.181,1.241,0.283	c0.384,0.101,0.703,0.208,0.939,0.315c0.309,0.133,0.533,0.272,0.668,0.411c0.128,0.144,0.195,0.336,0.195,0.582v0.917	c0,0.363-0.139,0.55-0.403,0.55c-0.149,0-0.384-0.075-0.708-0.224c-1.065-0.485-2.263-0.725-3.6-0.725	c-1.369,0-2.443,0.224-3.208,0.677c-0.768,0.453-1.157,1.149-1.157,2.099c0,0.661,0.232,1.213,0.692,1.661	c0.456,0.448,1.305,0.854,2.531,1.208l3.285,1.037c1.665,0.523,2.867,1.261,3.6,2.205c0.73,0.949,1.097,2.03,1.097,3.235	c0,0.981-0.196,1.861-0.595,2.629c-0.4,0.773-0.955,1.433-1.665,1.979c-0.708,0.539-1.545,0.955-2.515,1.245	C43.147,22.125,41.997,22.269,40.755,22.269z"/>
  <path fill="#f90" d="M43.893,33.387c-5.285,3.903-12.95,5.967-19.553,5.967c-9.246,0-17.585-3.423-23.874-9.115	c-0.495-0.448-0.053-1.058,0.541-0.709c6.807,3.957,15.228,6.345,23.931,6.345c5.863,0,12.307-1.218,18.234-3.737	C44.197,31.727,44.882,32.819,43.893,33.387z M46.137,30.782c-0.676-0.864-4.468-0.411-6.179-0.208	c-0.517,0.064-0.597-0.389-0.13-0.715c3.032-2.129,7.997-1.515,8.576-0.8c0.579,0.725-0.16,5.711-3,8.095	c-0.437,0.363-0.853,0.171-0.659-0.309C45.423,35.088,46.813,31.646,46.137,30.782z"/>
</svg> 