<?xml version="1.0" encoding="UTF-8"?>
<svg xmlns="http://www.w3.org/2000/svg" viewBox="0 0 512 512">
  <path fill="#7952B3" d="M56 0h400c30.928 0 56 25.072 56 56v400c0 30.928-25.072 56-56 56H56c-30.928 0-56-25.072-56-56V56C0 25.072 25.072 0 56 0z"/>
  <path fill="#FFF" d="M287.895 213.641c-5.541-4.533-13.107-6.8-22.697-6.8h-58.145v61.487h58.145c9.59 0 17.156-2.267 22.697-6.8 5.541-4.533 8.311-11.333 8.311-20.4 0-9.067-2.77-15.867-8.311-20.4v-7.087zm-14.386 89.067c6.574-4.533 9.861-11.333 9.861-20.4 0-9.067-3.287-15.867-9.861-20.4-6.574-4.533-15.902-6.8-27.984-6.8h-53.471v61.487h53.471c12.082 0 21.41-2.267 27.984-6.8v-7.087zM256 0c141.385 0 256 114.615 256 256S397.385 512 256 512 0 397.385 0 256 114.615 0 256 0zm84.328 334.295c-8.311 7.867-19.926 12.4-34.844 12.4h-89.43V158.4h89.43c14.918 0 26.533 4.533 34.844 12.4 8.311 7.867 12.467 19.2 12.467 34v83.2c0 14.8-4.156 26.133-12.467 34v12.295z"/>
</svg> 