<?xml version="1.0" encoding="UTF-8" standalone="no"?>
<svg xmlns="http://www.w3.org/2000/svg" viewBox="0 0 48 48">
  <path fill="#212121" d="M23.697,37.56h1.18c0.84,0,1.631-0.392,2.139-1.061l7.485-9.847l7.485,9.847	c0.508,0.668,1.299,1.061,2.139,1.061h1.18L35.756,25l9.549-12.56h-1.18c-0.84,0-1.631,0.392-2.139,1.061L34.5,23.347l-7.485-9.847	c-0.508-0.668-1.299-1.061-2.139-1.061h-1.18l9.549,12.56L23.697,37.56z"/>
  <path fill="#212121" d="M24,26v-3c0-6.675-5.945-11.961-12.829-10.852C5.351,13.064,1,17.779,1,23.477V26H24z M3,24v-0.523	c0-4.901,3.744-8.936,8.633-9.363C17.089,13.582,22,17.925,22,23v1H3z"/>
  <path fill="#212121" d="M24,30v3c0,6.675-5.945,11.961-12.829,10.852C5.351,42.936,1,38.221,1,32.523V30H24z M3,32v0.523	c0,4.901,3.744,8.936,8.633,9.363C17.089,42.418,22,38.075,22,33v-1H3z"/>
</svg> 