<?xml version="1.0" encoding="UTF-8"?>
<svg xmlns="http://www.w3.org/2000/svg" viewBox="0 0 512 512">
  <path fill="#5382A1" d="M269.1 364.3s-16.5 9.6 11.7 12.9c34.2 3.9 51.7 3.3 89.3-3.8 0 0 9.9 6.2 23.8 11.6-84.7 36.3-191.7-2.1-124.8-20.7zm-10.8-49.3s-18.5 13.7 9.7 16.6c36.6 3.8 65.5 4.1 115.4-5.6 0 0 6.9 7 17.7 10.8-101.7 29.7-215.1 2.3-142.8-21.8z"/>
  <path fill="#E76F00" d="M315.4 510.9s12.2 10.1-13.4 17.8c-48.7 14.7-202.8 19.2-245.7.6-15.4-6.7 13.5-16 22.6-17.9 9.5-2.1 14.9-1.7 14.9-1.7-17.1-12-110.7 23.7-47.5 33.9 172.2 27.9 314-12.5 269.1-32.7zm-188.7-136s-78.5 18.7-27.8 25.5c21.4 2.9 64.1 2.2 103.9-1.1 32.5-2.7 65.1-8.5 65.1-8.5s-11.5 4.9-19.7 10.6c-79.7 21-233.6 11.2-189.3-10.2 37.4-18 67.8-16.3 67.8-16.3z"/>
  <path fill="#5382A1" d="M355.9 432.9c81-42.1 43.6-82.6 17.4-77.1-6.4 1.3-9.2 2.5-9.2 2.5s2.4-3.7 6.9-5.3c51.6-18.1 91.2 53.6-16.7 82.1 0 0 1.2-1.1 1.6-2.2zM214.4 0s44.8 44.8-42.5 113.8c-69.9 55.3-15.9 86.8 0 122.8-40.8-36.8-70.7-69.3-50.7-99.5C154.1 83.3 231.9 64 214.4 0z"/>
  <path fill="#E76F00" d="M279.6 414.4c77.7 5 197-4.3 199.8-61.6 0 0-5.4 21.7-64.2 39-66.3 19.5-148.1 17.2-196.5 4.7 0 0 9.9 8.2 60.9 17.9z"/>
</svg> 