<?xml version="1.0" encoding="UTF-8"?>
<svg xmlns="http://www.w3.org/2000/svg" viewBox="0 0 388.12 264.29">
  <path fill="#00758f" d="M193.4 116.8c-2.7 0-4.3 1-5 2.1v-8.3h-4.2v28.3c1 .1 2.7.2 4.9.2 7.2 0 10.7-3.2 10.7-7.7 0-5.5-4.2-7.8-9.4-7.8zm-1.1 18.4c-1.4 0-2.4 0-3-.1v-12.8c.6-.7 1.7-1.3 3.2-1.3 3.3 0 5.5 1.9 5.5 4.8 0 3.5-2.4 5.2-5.7 5.2zm30.9-18.4c-2.7 0-4.3 1-5 2.1v-8.3H214v28.3c1 .1 2.7.2 4.9.2 7.2 0 10.7-3.2 10.7-7.7 0-5.5-4.2-7.8-9.4-7.8zm-1.1 18.4c-1.4 0-2.4 0-3-.1v-12.8c.6-.7 1.7-1.3 3.2-1.3 3.3 0 5.5 1.9 5.5 4.8 0 3.5-2.4 5.2-5.7 5.2z"/>
  <path fill="#e48e00" d="M164.9 117.3l-4.3 16.4-2.9-9.4c-.8-2.7-1.6-4.7-7.3-4.7h-13.8l-.1.4c5.9 1.4 7.3 1.8 9.7 5.4l6.5 17.5h4.8l15.8-25.6h-4.8z"/>
  <path fill="#00758f" d="M242.4 122.2c3.1 0 5.2.6 7.1 1.3l1.4-3.8c-2.1-.8-4.9-1.6-8.7-1.6-10.9 0-16.3 5.7-16.3 12.2 0 4.7 3.3 8.5 10.4 10.7 5.9 1.8 6.9 2.6 6.9 4.3 0 2.1-2.1 3-5.5 3-3.6 0-6.9-.9-9.7-1.9l-1.5 3.9c2.4.9 6.5 1.8 10.7 1.8 10.7 0 16.8-4.3 16.8-11.5 0-4.4-2.7-8.2-10.4-10.6-6.1-1.9-6.9-2.6-6.9-4.3 0-1.6 1.6-2.9 5.7-2.9z"/>
  <path fill="#e48e00" d="M288.3 117.2h-8.8l-.1.4c5.9 1.4 7.3 1.8 9.7 5.4l6.5 17.5h4.8l15.8-25.6h-4.8l-4.3 16.4-2.9-9.4c-.8-2.7-1.6-4.7-7.3-4.7h-13.8z"/>
  <path fill="#00758f" d="M131.1 142.5c-10.8 0-15.2-8.3-15.2-16.3 0-8.5 5.1-16.7 15.6-16.7 9.9 0 15.1 7.6 15.1 16.3 0 8.4-4.9 16.7-15.5 16.7zm.2-29.1c-6.7 0-9.3 6.1-9.3 12.7 0 6.4 2.7 12.5 9.3 12.5s9.2-6.1 9.2-12.7c0-6.4-2.7-12.5-9.2-12.5z"/>
</svg> 