<?xml version="1.0" encoding="UTF-8"?>
<svg xmlns="http://www.w3.org/2000/svg" viewBox="0 0 432.071 445.383">
  <path fill="#336791" d="M216.035 0C122.085 0 88.981 27.802 88.981 77.93c0 20.075 9.612 42.157 30.117 42.157 19.253 0 30.118-17.142 30.118-37.217 0-17.143-9.612-30.118-19.253-32.64 0-7.56 27.802-20.075 86.459-20.075 58.657 0 86.459 12.515 86.459 20.075-9.641 2.522-19.253 15.497-19.253 32.64 0 20.075 10.865 37.217 30.118 37.217 20.505 0 30.117-22.082 30.117-42.157C343.863 27.802 310.759 0 216.035 0z"/>
  <path fill="#336791" d="M216.035 445.383c93.95 0 127.054-27.802 127.054-77.93 0-20.075-9.612-42.157-30.117-42.157-19.253 0-30.118 17.142-30.118 37.217 0 17.143 9.612 30.118 19.253 32.64 0 7.56-27.802 20.075-86.459 20.075-58.657 0-86.459-12.515-86.459-20.075 9.641-2.522 19.253-15.497 19.253-32.64 0-20.075-10.865-37.217-30.118-37.217-20.505 0-30.117 22.082-30.117 42.157 0 50.128 33.104 77.93 127.828 77.93z"/>
  <path fill="#fff" d="M216.035 89.222c-58.657 0-86.459 12.515-86.459 20.075 9.641 2.522 19.253 15.497 19.253 32.64 0 20.075-10.865 37.217-30.118 37.217-20.505 0-30.117-22.082-30.117-42.157 0-50.128 33.104-77.93 127.828-77.93 93.95 0 127.054 27.802 127.054 77.93 0 20.075-9.612 42.157-30.117 42.157-19.253 0-30.118-17.142-30.118-37.217 0-17.143 9.612-30.118 19.253-32.64-.387-7.56-28.189-20.075-86.459-20.075z"/>
</svg> 