<?xml version="1.0" encoding="UTF-8"?>
<svg xmlns="http://www.w3.org/2000/svg" viewBox="0 0 512 512">
  <rect width="512" height="512" rx="50" fill="#3178c6"/>
  <path fill="#fff" d="M317 407v50c8.1 4.2 18 7.3 29 9.4s23 3.1 35 3.1c12 0 23-1.1 34-3.4 11-2.3 20-6.1 28-11.4 8.1-5.3 14-12.2 19-20.7 4.7-8.5 7-19.5 7-32.9 0-9.4-1.3-17.6-4-24.6-2.7-7-6.5-13.3-11.5-18.9-5-5.6-11-10.6-18-15-7-4.4-15-8.7-24-12.9-7-2.7-13-5.3-18-7.9-5.4-2.6-10-5.2-13.4-7.8-3.4-2.6-6-5.3-7.8-8-1.8-2.7-2.7-5.9-2.7-9.5 0-3.3.8-6.2 2.3-8.7 1.5-2.5 3.7-4.6 6.6-6.2 2.9-1.6 6.5-2.8 10.7-3.6 4.2-.8 9-1.2 14.4-1.2 3.8 0 7.9.3 12.3.9 4.4.6 8.8 1.5 13.3 2.7 4.5 1.2 8.9 2.6 13.2 4.3 4.3 1.7 8.2 3.6 11.7 5.8V247c-7.6-3-16-5.1-25-6.5-9.1-1.4-19-2.1-30-2.1-12 0-23 1.3-34 3.8s-20 6.5-28 11.9c-8.1 5.4-14 12.4-19 21-4.7 8.6-7 19.1-7 31.5 0 15.7 4.5 29.2 13.4 40.4 8.9 11.2 23 20.7 42 28.5 7.5 2.8 14 5.6 20 8.3 5.8 2.7 11 5.5 15.4 8.4 4.4 2.9 7.9 6 10.4 9.3 2.5 3.3 3.8 7.1 3.8 11.4 0 3.1-.7 5.9-2 8.4-1.4 2.5-3.4 4.7-6.2 6.4-2.8 1.7-6.2 3.1-10.3 4-4.1.9-9 1.4-14.6 1.4-11 0-22-1.9-32-5.7-11-3.8-21-9.5-30.8-17.1zm-84-123h64v-41H118v41h64v183h51z"/>
</svg> 